<svg xmlns="http://www.w3.org/2000/svg" viewBox="0 0 20 22" aria-hidden="true" focusable="false">
  <path d="M5.8 3.629c.294.433.118.996-.433 1.348-2.156 1.37-3.515 3.82-3.515 6.609 0 4.348 3.351 7.828 7.734 7.828s7.734-3.48 7.734-7.828c0-3.797-2.554-6.926-6.117-7.664v1.031c0 .715-.691.961-1.254.54L7.371 3.581a.635.635 0 010-1.043L9.95.617c.574-.433 1.254-.187 1.254.551v.937c4.512.75 7.969 4.758 7.969 9.48 0 5.286-4.313 9.61-9.586 9.61-5.274 0-9.586-4.324-9.586-9.61a9.59 9.59 0 014.523-8.144c.434-.27.985-.246 1.278.188zm1.032 11.707c-.445 0-.773-.305-.773-.797V9.9h-.07l-.739.55c-.188.153-.305.2-.504.2-.305 0-.598-.258-.598-.586 0-.258.094-.458.375-.668l1.149-.81c.445-.315.668-.398 1.055-.398.55 0 .902.364.902.88v5.59c0 .491-.328.679-.797.679zm4.816.059c-1.218 0-2.226-.528-2.496-1.313-.023-.117-.058-.234-.058-.328 0-.41.27-.645.668-.645.316 0 .504.13.633.364.222.468.656.738 1.289.738.726 0 1.254-.55 1.254-1.277 0-.727-.446-1.207-1.114-1.207-.422 0-.633.152-.844.304-.246.153-.468.328-.89.328-.598 0-.926-.316-.867-.925l.175-2.286c.047-.55.457-.914 1.055-.914h3.117c.387 0 .621.246.621.621 0 .34-.257.563-.62.563h-2.872l-.164 1.816h.082c.153-.257.68-.62 1.488-.62 1.407 0 2.344.913 2.344 2.273 0 1.488-1.113 2.508-2.8 2.508z"></path>
</svg>