<svg xmlns="http://www.w3.org/2000/svg" viewBox="0 0 20 22" aria-hidden="true" focusable="false">
  <path d="M7.969 4.953V3.922c-3.563.738-6.117 3.867-6.117 7.664 0 4.348 3.351 7.828 7.734 7.828s7.734-3.48 7.734-7.828c0-2.79-1.36-5.238-3.515-6.61-.551-.351-.727-.913-.434-1.347.293-.434.844-.457 1.277-.188a9.59 9.59 0 014.524 8.145c0 5.285-4.313 9.61-9.586 9.61C4.312 21.195 0 16.87 0 11.585c0-4.723 3.457-8.73 7.969-9.48v-.938c0-.738.68-.984 1.254-.55L11.8 2.538a.635.635 0 010 1.043l-2.578 1.91c-.563.422-1.254.176-1.254-.539zm4.758 10.442c-1.63 0-2.79-1.336-2.79-3.633 0-2.309 1.16-3.645 2.79-3.645 1.652 0 2.824 1.336 2.824 3.645 0 2.297-1.172 3.633-2.824 3.633zm-6.258 0c-1.278 0-2.332-.563-2.59-1.465-.024-.117-.047-.211-.047-.34 0-.41.293-.656.691-.656.352 0 .551.164.668.445.188.55.598.855 1.301.867.727 0 1.23-.445 1.23-1.031-.011-.574-.492-.973-1.218-.973h-.422c-.328 0-.61-.234-.61-.562 0-.34.258-.598.61-.598h.387c.633 0 1.066-.387 1.066-.914-.012-.527-.433-.902-1.055-.902-.574 0-1.007.316-1.16.855-.117.281-.328.445-.656.445-.422 0-.703-.257-.703-.656 0-.14.012-.223.047-.34.234-.879 1.172-1.453 2.496-1.453 1.547 0 2.531.774 2.555 1.84.023.938-.786 1.5-1.348 1.582v.07c.68.082 1.547.598 1.57 1.688.024 1.3-1.219 2.098-2.812 2.098zm6.27-1.278c.784 0 1.288-.82 1.288-2.355 0-1.535-.504-2.356-1.289-2.356-.808 0-1.312.82-1.312 2.356 0 1.535.504 2.355 1.312 2.355z"></path>
</svg>