<?xml version="1.0" encoding="UTF-8"?>
<svg width="700pt" height="700pt" version="1.1" viewBox="0 0 700 700" xmlns="http://www.w3.org/2000/svg" xmlns:xlink="http://www.w3.org/1999/xlink">
 <defs>
  <symbol id="v" overflow="visible">
   <path d="m3.8906-0.23438c-0.19922 0.10547-0.40625 0.18359-0.625 0.23438s-0.44922 0.078125-0.6875 0.078125c-0.69922 0-1.2578-0.19141-1.6719-0.57812-0.40625-0.39453-0.60938-0.92969-0.60938-1.6094 0-0.67578 0.20312-1.2109 0.60938-1.6094 0.41406-0.39453 0.97266-0.59375 1.6719-0.59375 0.23828 0 0.46875 0.027344 0.6875 0.078125 0.21875 0.054687 0.42578 0.13281 0.625 0.23438v0.875c-0.19922-0.13281-0.39844-0.23438-0.59375-0.29688-0.19922-0.0625-0.40625-0.09375-0.625-0.09375-0.38672 0-0.69531 0.125-0.92188 0.375-0.21875 0.25-0.32812 0.59375-0.32812 1.0312s0.10938 0.78125 0.32812 1.0312c0.22656 0.25 0.53516 0.375 0.92188 0.375 0.21875 0 0.42578-0.03125 0.625-0.09375 0.19531-0.070313 0.39453-0.17578 0.59375-0.3125z"/>
  </symbol>
  <symbol id="d" overflow="visible">
   <path d="m2.8438-2.3125c-0.085938-0.039062-0.17188-0.070312-0.26562-0.09375-0.085937-0.019531-0.17188-0.03125-0.26562-0.03125-0.26172 0-0.46484 0.085938-0.60938 0.25-0.13672 0.16797-0.20312 0.40625-0.20312 0.71875v1.4688h-1.0156v-3.1719h1.0156v0.51562c0.13281-0.20703 0.28516-0.35938 0.45312-0.45312 0.16406-0.09375 0.36719-0.14062 0.60938-0.14062h0.10938c0.039063 0 0.097656 0.007812 0.17188 0.015625z"/>
  </symbol>
  <symbol id="b" overflow="visible">
   <path d="m3.6562-1.5938v0.28125h-2.375c0.03125 0.24219 0.11719 0.42188 0.26562 0.54688 0.14453 0.11719 0.34766 0.17188 0.60938 0.17188 0.21875 0 0.4375-0.03125 0.65625-0.09375 0.22656-0.0625 0.46094-0.15625 0.70312-0.28125v0.78125c-0.24219 0.085938-0.48438 0.14844-0.73438 0.1875-0.24219 0.050781-0.48047 0.078125-0.71875 0.078125-0.57422 0-1.0234-0.14453-1.3438-0.4375-0.3125-0.28906-0.46875-0.70312-0.46875-1.2344 0-0.50781 0.15625-0.91016 0.46875-1.2031 0.3125-0.30078 0.74219-0.45312 1.2969-0.45312 0.5 0 0.89453 0.15234 1.1875 0.45312 0.30078 0.29297 0.45312 0.69531 0.45312 1.2031zm-1.0469-0.34375c0-0.1875-0.058594-0.33594-0.17188-0.45312-0.10547-0.125-0.25-0.1875-0.4375-0.1875s-0.34375 0.058594-0.46875 0.17188c-0.125 0.10547-0.20312 0.26172-0.23438 0.46875z"/>
  </symbol>
  <symbol id="l" overflow="visible">
   <path d="m1.9062-1.4375c-0.21094 0-0.36719 0.039062-0.46875 0.10938-0.10547 0.074219-0.15625 0.18359-0.15625 0.32812 0 0.125 0.039062 0.22656 0.125 0.29688 0.082031 0.074219 0.20312 0.10938 0.35938 0.10938 0.1875 0 0.34375-0.066406 0.46875-0.20312 0.13281-0.13281 0.20312-0.30469 0.20312-0.51562v-0.125zm1.5625-0.375v1.8125h-1.0312v-0.46875c-0.13672 0.1875-0.29297 0.32812-0.46875 0.42188-0.16797 0.082031-0.37109 0.125-0.60938 0.125-0.33594 0-0.60547-0.09375-0.8125-0.28125-0.19922-0.19531-0.29688-0.44531-0.29688-0.75 0-0.375 0.125-0.64453 0.375-0.8125 0.25781-0.17578 0.66406-0.26562 1.2188-0.26562h0.59375v-0.078125c0-0.16406-0.0625-0.28516-0.1875-0.35938-0.125-0.070312-0.32422-0.10938-0.59375-0.10938-0.21875 0-0.42188 0.023437-0.60938 0.0625-0.1875 0.042969-0.35938 0.10938-0.51562 0.20312v-0.78125c0.21875-0.050781 0.4375-0.085938 0.65625-0.10938 0.21875-0.03125 0.4375-0.046875 0.65625-0.046875 0.57031 0 0.98438 0.11719 1.2344 0.34375 0.25781 0.21875 0.39062 0.58594 0.39062 1.0938z"/>
  </symbol>
  <symbol id="a" overflow="visible">
   <path d="m1.5938-4.0781v0.90625h1.0469v0.71875h-1.0469v1.3438c0 0.15625 0.03125 0.26172 0.09375 0.3125 0.0625 0.042969 0.17578 0.0625 0.34375 0.0625h0.53125v0.73438h-0.875c-0.40625 0-0.69531-0.082031-0.85938-0.25-0.16797-0.16406-0.25-0.45312-0.25-0.85938v-1.3438h-0.5v-0.71875h0.5v-0.90625z"/>
  </symbol>
  <symbol id="f" overflow="visible">
   <path d="m2.6562-2.7188v-1.7031h1.0156v4.4219h-1.0156v-0.45312c-0.14844 0.1875-0.30469 0.32422-0.46875 0.40625-0.16797 0.082031-0.35938 0.125-0.57812 0.125-0.39844 0-0.71875-0.14844-0.96875-0.45312-0.25-0.3125-0.375-0.71875-0.375-1.2188 0-0.48828 0.125-0.88281 0.375-1.1875 0.25-0.3125 0.57031-0.46875 0.96875-0.46875 0.21875 0 0.41016 0.046875 0.57812 0.14062 0.16406 0.085937 0.32031 0.21484 0.46875 0.39062zm-0.67188 2.0625c0.21875 0 0.38281-0.078125 0.5-0.23438 0.11328-0.15625 0.17188-0.39062 0.17188-0.70312 0-0.30078-0.058594-0.53125-0.17188-0.6875-0.11719-0.15625-0.28125-0.23438-0.5-0.23438s-0.38672 0.078125-0.5 0.23438c-0.11719 0.15625-0.17188 0.38672-0.17188 0.6875 0 0.3125 0.054688 0.54688 0.17188 0.70312 0.11328 0.15625 0.28125 0.23438 0.5 0.23438z"/>
  </symbol>
  <symbol id="k" overflow="visible">
   <path d="m2.1875-0.65625c0.20703 0 0.36719-0.078125 0.48438-0.23438 0.11328-0.15625 0.17188-0.39062 0.17188-0.70312 0-0.30078-0.058594-0.53125-0.17188-0.6875-0.11719-0.15625-0.27734-0.23438-0.48438-0.23438-0.21875 0-0.39062 0.085937-0.51562 0.25-0.11719 0.15625-0.17188 0.38281-0.17188 0.67188 0 0.30469 0.054688 0.53906 0.17188 0.70312 0.125 0.15625 0.29688 0.23438 0.51562 0.23438zm-0.6875-2.0625c0.14453-0.17578 0.30078-0.30469 0.46875-0.39062 0.16406-0.09375 0.36328-0.14062 0.59375-0.14062 0.38281 0 0.70312 0.15625 0.95312 0.46875 0.25781 0.30469 0.39062 0.69922 0.39062 1.1875 0 0.5-0.13281 0.90625-0.39062 1.2188-0.25 0.30469-0.57031 0.45312-0.95312 0.45312-0.23047 0-0.42969-0.042969-0.59375-0.125-0.16797-0.09375-0.32422-0.22656-0.46875-0.40625v0.45312h-1.0156v-4.4219h1.0156z"/>
  </symbol>
  <symbol id="e" overflow="visible">
   <path d="m0.078125-3.1719h1.0156l0.84375 2.1562 0.73438-2.1562h1.0156l-1.3438 3.4688c-0.13672 0.35156-0.29297 0.59766-0.46875 0.73438-0.17969 0.14453-0.41406 0.21875-0.70312 0.21875h-0.59375v-0.65625h0.32812c0.16406 0 0.28516-0.03125 0.35938-0.09375 0.082031-0.054688 0.14453-0.15234 0.1875-0.29688l0.03125-0.078125z"/>
  </symbol>
  <symbol id="j" overflow="visible">
   <path d="m3.1094-0.76562h-1.7188l-0.26562 0.76562h-1.0938l1.5625-4.2344h1.3125l1.5625 4.2344h-1.0938zm-1.4375-0.79688h1.1562l-0.57812-1.6875z"/>
  </symbol>
  <symbol id="i" overflow="visible">
   <path d="m3.4375-2.6562c0.125-0.19531 0.27344-0.34375 0.45312-0.4375 0.17578-0.10156 0.36719-0.15625 0.57812-0.15625 0.375 0 0.65625 0.11719 0.84375 0.34375 0.1875 0.21875 0.28125 0.54297 0.28125 0.96875v1.9375h-1.0156v-1.6562-0.078125-0.10938c0-0.22656-0.039063-0.39062-0.10938-0.48438-0.0625-0.10156-0.16797-0.15625-0.3125-0.15625-0.1875 0-0.33594 0.078125-0.4375 0.23438-0.10547 0.15625-0.16406 0.38672-0.17188 0.6875v1.5625h-1.0156v-1.6562c0-0.35156-0.03125-0.57812-0.09375-0.67188-0.0625-0.10156-0.17188-0.15625-0.32812-0.15625-0.1875 0-0.33984 0.078125-0.45312 0.23438-0.10547 0.15625-0.15625 0.38672-0.15625 0.6875v1.5625h-1.0156v-3.1719h1.0156v0.45312c0.125-0.17578 0.26562-0.30469 0.42188-0.39062 0.16406-0.09375 0.34766-0.14062 0.54688-0.14062 0.21875 0 0.41016 0.054688 0.57812 0.15625 0.16406 0.10547 0.29688 0.25 0.39062 0.4375z"/>
  </symbol>
  <symbol id="h" overflow="visible">
   <path d="m3.6875-1.9375v1.9375h-1.0312v-1.4688c0-0.28125-0.007812-0.47266-0.015625-0.57812-0.011719-0.10156-0.03125-0.17969-0.0625-0.23438-0.042969-0.0625-0.10156-0.10938-0.17188-0.14062-0.0625-0.039063-0.13672-0.0625-0.21875-0.0625-0.21094 0-0.375 0.085937-0.5 0.25-0.125 0.15625-0.1875 0.38281-0.1875 0.67188v1.5625h-1.0156v-4.4219h1.0156v1.7031c0.15625-0.17578 0.31641-0.30469 0.48438-0.39062 0.17578-0.09375 0.36719-0.14062 0.57812-0.14062 0.36328 0 0.64062 0.11719 0.82812 0.34375 0.19531 0.21875 0.29688 0.54297 0.29688 0.96875z"/>
  </symbol>
  <symbol id="u" overflow="visible">
   <path d="m2.9688-3.0781v0.76562c-0.21875-0.082031-0.43359-0.14453-0.64062-0.1875-0.19922-0.050781-0.38672-0.078125-0.5625-0.078125-0.1875 0-0.32812 0.027344-0.42188 0.078125-0.09375 0.042969-0.14062 0.11719-0.14062 0.21875 0 0.085938 0.03125 0.14844 0.09375 0.1875 0.070313 0.042969 0.20312 0.074219 0.39062 0.09375l0.17188 0.03125c0.51953 0.0625 0.86719 0.17188 1.0469 0.32812 0.1875 0.14844 0.28125 0.38281 0.28125 0.70312 0 0.34375-0.125 0.60156-0.375 0.76562-0.25 0.16797-0.625 0.25-1.125 0.25-0.21094 0-0.42969-0.015625-0.65625-0.046875-0.21875-0.03125-0.44922-0.078125-0.6875-0.14062v-0.78125c0.20703 0.10547 0.41406 0.18359 0.625 0.23438 0.21875 0.042969 0.4375 0.0625 0.65625 0.0625 0.19531 0 0.34375-0.023438 0.4375-0.078125 0.10156-0.050781 0.15625-0.13281 0.15625-0.25 0-0.09375-0.039062-0.16016-0.10938-0.20312-0.0625-0.039062-0.19922-0.070312-0.40625-0.09375l-0.17188-0.03125c-0.46094-0.050781-0.78125-0.15625-0.96875-0.3125-0.17969-0.15625-0.26562-0.39062-0.26562-0.70312 0-0.33203 0.11328-0.57812 0.34375-0.73438 0.23828-0.16406 0.59375-0.25 1.0625-0.25 0.1875 0 0.38281 0.015625 0.59375 0.046875 0.20703 0.023437 0.42969 0.0625 0.67188 0.125z"/>
  </symbol>
  <symbol id="t" overflow="visible">
   <path d="m3.4844-4.1094v0.90625c-0.23047-0.10156-0.46094-0.17969-0.6875-0.23438-0.21875-0.050781-0.42969-0.078125-0.625-0.078125-0.26172 0-0.45312 0.039063-0.57812 0.10938-0.125 0.0625-0.1875 0.17188-0.1875 0.32812 0 0.11719 0.039062 0.20312 0.125 0.26562 0.082031 0.0625 0.23828 0.11719 0.46875 0.15625l0.45312 0.09375c0.47656 0.09375 0.81641 0.24219 1.0156 0.4375 0.19531 0.1875 0.29688 0.46484 0.29688 0.82812 0 0.46094-0.14062 0.80469-0.42188 1.0312-0.28125 0.23047-0.70312 0.34375-1.2656 0.34375-0.27344 0-0.54297-0.027344-0.8125-0.078125-0.27344-0.050781-0.54297-0.125-0.8125-0.21875v-0.92188c0.26953 0.14844 0.53125 0.25781 0.78125 0.32812 0.25781 0.074219 0.50391 0.10938 0.73438 0.10938 0.23828 0 0.42188-0.039063 0.54688-0.125 0.125-0.082031 0.1875-0.19531 0.1875-0.34375 0-0.13281-0.042969-0.23438-0.125-0.29688-0.085937-0.070312-0.25781-0.14062-0.51562-0.20312l-0.42188-0.09375c-0.42969-0.09375-0.74219-0.23828-0.9375-0.4375-0.1875-0.19531-0.28125-0.46094-0.28125-0.79688 0-0.42578 0.13281-0.75 0.40625-0.96875 0.26953-0.22656 0.66016-0.34375 1.1719-0.34375 0.22656 0 0.46875 0.023438 0.71875 0.0625 0.25 0.03125 0.50391 0.078125 0.76562 0.14062z"/>
  </symbol>
  <symbol id="g" overflow="visible">
   <path d="m0.45312-1.2344v-1.9375h1.0156v0.3125 0.64062 0.53125c0 0.25 0.003906 0.43359 0.015625 0.54688 0.019531 0.11719 0.046875 0.19922 0.078125 0.25 0.039062 0.0625 0.09375 0.11719 0.15625 0.15625 0.070312 0.03125 0.14844 0.046875 0.23438 0.046875 0.20703 0 0.375-0.078125 0.5-0.23438 0.125-0.16406 0.1875-0.39453 0.1875-0.6875v-1.5625h1.0156v3.1719h-1.0156v-0.45312c-0.15625 0.17969-0.32422 0.3125-0.5 0.40625-0.16797 0.082031-0.35547 0.125-0.5625 0.125-0.36719 0-0.64844-0.10938-0.84375-0.32812-0.1875-0.22656-0.28125-0.55469-0.28125-0.98438z"/>
  </symbol>
  <symbol id="s" overflow="visible">
   <path d="m0.48438-3.1719h1.0156v3.1719h-1.0156zm0-1.25h1.0156v0.82812h-1.0156z"/>
  </symbol>
  <symbol id="c" overflow="visible">
   <path d="m2-2.5312c-0.23047 0-0.40234 0.085938-0.51562 0.25-0.11719 0.15625-0.17188 0.38672-0.17188 0.6875 0 0.3125 0.054688 0.55469 0.17188 0.71875 0.11328 0.15625 0.28516 0.23438 0.51562 0.23438 0.21875 0 0.38281-0.078125 0.5-0.23438 0.125-0.16406 0.1875-0.40625 0.1875-0.71875 0-0.30078-0.0625-0.53125-0.1875-0.6875-0.11719-0.16406-0.28125-0.25-0.5-0.25zm0-0.71875c0.55078 0 0.97656 0.14844 1.2812 0.4375 0.3125 0.29297 0.46875 0.69922 0.46875 1.2188 0 0.53125-0.15625 0.94531-0.46875 1.2344-0.30469 0.29297-0.73047 0.4375-1.2812 0.4375-0.55469 0-0.98438-0.14453-1.2969-0.4375-0.30469-0.28906-0.45312-0.70312-0.45312-1.2344 0-0.51953 0.14844-0.92578 0.45312-1.2188 0.3125-0.28906 0.74219-0.4375 1.2969-0.4375z"/>
  </symbol>
  <symbol id="r" overflow="visible">
   <path d="m2.5781-4.4219v0.67188h-0.5625c-0.14844 0-0.25 0.027344-0.3125 0.078125-0.054687 0.054687-0.078125 0.14062-0.078125 0.26562v0.23438h0.875v0.71875h-0.875v2.4531h-1.0156v-2.4531h-0.5v-0.71875h0.5v-0.23438c0-0.34375 0.09375-0.59766 0.28125-0.76562 0.19531-0.16406 0.5-0.25 0.90625-0.25z"/>
  </symbol>
  <symbol id="q" overflow="visible">
   <path d="m0.53125-4.2344h1.2188l1.5469 2.9062v-2.9062h1.0312v4.2344h-1.2188l-1.5469-2.9062v2.9062h-1.0312z"/>
  </symbol>
  <symbol id="p" overflow="visible">
   <path d="m3.6875-1.9375v1.9375h-1.0312v-1.4844c0-0.26953-0.007812-0.45703-0.015625-0.5625-0.011719-0.10156-0.03125-0.17969-0.0625-0.23438-0.042969-0.0625-0.10156-0.10938-0.17188-0.14062-0.0625-0.039063-0.13672-0.0625-0.21875-0.0625-0.21094 0-0.375 0.085937-0.5 0.25-0.125 0.15625-0.1875 0.38281-0.1875 0.67188v1.5625h-1.0156v-3.1719h1.0156v0.45312c0.15625-0.17578 0.31641-0.30469 0.48438-0.39062 0.17578-0.09375 0.36719-0.14062 0.57812-0.14062 0.36328 0 0.64062 0.11719 0.82812 0.34375 0.19531 0.21875 0.29688 0.54297 0.29688 0.96875z"/>
  </symbol>
  <symbol id="o" overflow="visible">
   <path d="m0.53125-4.2344h1.8125c0.53906 0 0.95312 0.12109 1.2344 0.35938 0.28906 0.24219 0.4375 0.57812 0.4375 1.0156 0 0.44922-0.14844 0.79297-0.4375 1.0312-0.28125 0.24219-0.69531 0.35938-1.2344 0.35938h-0.71875v1.4688h-1.0938zm1.0938 0.78125v1.1875h0.60938c0.20703 0 0.36719-0.050781 0.48438-0.15625 0.11328-0.10156 0.17188-0.25 0.17188-0.4375s-0.058594-0.33203-0.17188-0.4375c-0.11719-0.10156-0.27734-0.15625-0.48438-0.15625z"/>
  </symbol>
  <symbol id="n" overflow="visible">
   <path d="m0.48438-3.1719h1.0156v3.1094c0 0.42578-0.10547 0.75-0.3125 0.96875-0.19922 0.22656-0.49219 0.34375-0.875 0.34375h-0.5v-0.65625h0.17188c0.1875 0 0.31641-0.046875 0.39062-0.14062 0.070312-0.085937 0.10938-0.25781 0.10938-0.51562zm0-1.25h1.0156v0.82812h-1.0156z"/>
  </symbol>
  <symbol id="m" overflow="visible">
   <path d="m3.0625-3.0781v0.82812c-0.14844-0.09375-0.28906-0.16016-0.42188-0.20312-0.13672-0.050781-0.28125-0.078125-0.4375-0.078125-0.28125 0-0.5 0.085938-0.65625 0.25-0.15625 0.16797-0.23438 0.39844-0.23438 0.6875 0 0.30469 0.078125 0.53906 0.23438 0.70312 0.15625 0.16797 0.375 0.25 0.65625 0.25 0.16406 0 0.31641-0.019531 0.45312-0.0625 0.14453-0.050781 0.28125-0.125 0.40625-0.21875v0.82812c-0.16797 0.0625-0.33594 0.10156-0.5 0.125-0.15625 0.03125-0.32031 0.046875-0.48438 0.046875-0.57422 0-1.0234-0.14453-1.3438-0.4375-0.32422-0.28906-0.48438-0.70312-0.48438-1.2344 0-0.51953 0.16016-0.92578 0.48438-1.2188 0.32031-0.28906 0.76953-0.4375 1.3438-0.4375 0.16406 0 0.32812 0.015625 0.48438 0.046875 0.16406 0.023437 0.33203 0.0625 0.5 0.125z"/>
  </symbol>
 </defs>
 <g>
  <path d="m350 368.23c-11.703 0-21.227 9.5156-21.227 21.215 0 11.703 9.5234 21.227 21.227 21.227s21.227-9.5234 21.227-21.227c0-11.695-9.5234-21.215-21.227-21.215z"/>
  <path d="m430.45 368.23c-11.703 0-21.227 9.5156-21.227 21.215 0 11.703 9.5195 21.227 21.227 21.227 11.703 0 21.227-9.5234 21.227-21.227 0-11.695-9.5195-21.215-21.227-21.215z"/>
  <path d="m269.55 368.23c-11.703 0-21.227 9.5156-21.227 21.215 0 11.703 9.5234 21.227 21.227 21.227 11.703 0 21.227-9.5234 21.227-21.227-0.003906-11.695-9.5234-21.215-21.227-21.215z"/>
  <path d="m625.39 334.96c-0.26172-51.168-5.293-96.98-14.996-136.2-2.2344-9.0352-4.7578-17.875-7.4922-26.273-18.32-56.32-48.363-99.387-89.301-128-42.238-29.523-97.281-44.492-163.6-44.492s-121.36 14.969-163.6 44.488c-40.934 28.613-70.98 71.68-89.301 128-2.7383 8.3984-5.2578 17.238-7.4922 26.273-9.7031 39.215-14.734 85.027-14.996 136.2-10.188 2.1445-17.863 11.199-17.863 22.016v85.16c0 12.402 10.09 22.496 22.496 22.496h18.469c2.3633 26.246 24.469 46.887 51.32 46.887 13.059 0 25.449-4.918 34.914-13.652 7.0391 11.145 19.289 18.062 32.824 18.062h178.19l50.516 42.973c0.85938 0.73047 1.9336 1.1094 3.0156 1.1094 0.66016 0 1.3281-0.14062 1.9531-0.42969 1.6484-0.76172 2.7031-2.4102 2.7031-4.2266v-39.426h30.094c13.535 0 25.781-6.918 32.824-18.062 9.4648 8.7344 21.859 13.652 34.914 13.652 26.848 0 48.957-20.641 51.32-46.887h18.469c12.402 0 22.496-10.09 22.496-22.496v-85.16c-0.007813-10.816-7.6836-19.871-17.871-22.012zm-30.461-156.79c1.6641 5.2539 3.2461 10.656 4.7188 16.18-17.453-2.1328-31.898-2.1094-43.855 0.070313-1.4922-5.6523-3.1367-11.219-4.9336-16.645 14.145-1.7148 28.934-1.5742 44.07 0.39453zm-489.86 0c15.141-1.9688 29.926-2.1094 44.07-0.39453-1.8008 5.4258-3.4453 10.996-4.9336 16.645-11.957-2.1797-26.406-2.2031-43.855-0.070313 1.4688-5.5195 3.0547-10.922 4.7188-16.18zm-7.582 277.14h-18.25c-7.2695 0-13.184-5.9141-13.184-13.184v-85.16c0-7.2695 5.9141-13.184 13.184-13.184h18.246zm0.21094-120.84h-13.777c0.28125-48.898 4.9844-92.734 13.996-130.43 17.848-2.4297 32.34-2.6211 44.039-0.57812-6.0195 26.113-9.1719 55.277-9.3867 86.82-19.359 6.5039-33.039 23.887-34.871 44.184zm39.504-40.719v-0.003906zm375.6 10.766c-8.6289 9.4922-13.371 21.703-13.371 34.609v120.84c0 11.035 3.5664 21.789 10.086 30.609-5.043 9.8164-15.086 16.031-26.285 16.031h-34.75c-2.5703 0-4.6562 2.0859-4.6562 4.6562v34.012l-44.148-37.555c-0.84375-0.71484-1.9102-1.1094-3.0156-1.1094l-179.9-0.003906c-11.195 0-21.242-6.2188-26.285-16.031 6.5156-8.8203 10.086-19.574 10.086-30.609l0.003906-120.84c0-12.906-4.7422-25.117-13.371-34.609v-2.6523c0-16.305 13.266-29.57 29.57-29.57h266.46c16.305 0 29.57 13.266 29.57 29.57zm38.168-16.934c-10.594 0-20.688 3.1836-29.219 9.0781-2.5508-18.988-18.848-33.68-38.52-33.68l-266.47 0.003906c-19.672 0-35.969 14.691-38.52 33.68-8.5312-5.8945-18.625-9.0781-29.219-9.0781-2.3867 0-4.7695 0.17969-7.1328 0.50781 0.36328-31.84 3.793-61.117 10.219-87.098 2.1641-8.75 4.7344-17.328 7.6406-25.508 29.457-82.766 93.461-124.73 190.25-124.73s160.79 41.965 190.25 124.73c2.9062 8.1758 5.4805 16.758 7.6406 25.508 6.4258 25.98 9.8555 55.262 10.219 87.098-2.3633-0.32422-4.7422-0.50781-7.1328-0.50781zm11.824 6.168v-0.003906zm4.6328-3.4648c-0.21484-31.535-3.3633-60.703-9.3867-86.82 11.699-2.043 26.188-1.8516 44.039 0.57812 9.0117 37.691 13.715 81.527 13.996 130.43h-13.777c-1.832-20.297-15.512-37.68-34.871-44.184zm66.516 151.84c0 7.2695-5.9141 13.184-13.184 13.184h-18.246v-111.53h18.246c7.2695 0 13.184 5.9141 13.184 13.184z"/>
  <use x="56.746094" y="577.457031" xlink:href="#v"/>
  <use x="61.015625" y="577.457031" xlink:href="#d"/>
  <use x="63.886719" y="577.457031" xlink:href="#b"/>
  <use x="67.832031" y="577.457031" xlink:href="#l"/>
  <use x="71.757812" y="577.457031" xlink:href="#a"/>
  <use x="74.539062" y="577.457031" xlink:href="#b"/>
  <use x="78.484375" y="577.457031" xlink:href="#f"/>
  <use x="84.675781" y="577.457031" xlink:href="#k"/>
  <use x="88.839844" y="577.457031" xlink:href="#e"/>
  <use x="94.660156" y="577.457031" xlink:href="#j"/>
  <use x="99.164062" y="577.457031" xlink:href="#i"/>
  <use x="105.226562" y="577.457031" xlink:href="#b"/>
  <use x="109.171875" y="577.457031" xlink:href="#a"/>
  <use x="111.953125" y="577.457031" xlink:href="#h"/>
  <use x="116.09375" y="577.457031" xlink:href="#e"/>
  <use x="119.886719" y="577.457031" xlink:href="#u"/>
  <use x="123.351563" y="577.457031" xlink:href="#a"/>
  <use x="128.160156" y="577.457031" xlink:href="#t"/>
  <use x="132.347656" y="577.457031" xlink:href="#a"/>
  <use x="135.132812" y="577.457031" xlink:href="#g"/>
  <use x="139.273438" y="577.457031" xlink:href="#f"/>
  <use x="143.4375" y="577.457031" xlink:href="#s"/>
  <use x="145.433594" y="577.457031" xlink:href="#c"/>
  <use x="56.746094" y="583.273438" xlink:href="#r"/>
  <use x="59.277344" y="583.273438" xlink:href="#d"/>
  <use x="62.144531" y="583.273438" xlink:href="#c"/>
  <use x="66.144531" y="583.273438" xlink:href="#i"/>
  <use x="74.230469" y="583.273438" xlink:href="#a"/>
  <use x="77.011719" y="583.273438" xlink:href="#h"/>
  <use x="81.15625" y="583.273438" xlink:href="#b"/>
  <use x="87.128906" y="583.273438" xlink:href="#q"/>
  <use x="91.996094" y="583.273438" xlink:href="#c"/>
  <use x="95.996094" y="583.273438" xlink:href="#g"/>
  <use x="100.136719" y="583.273438" xlink:href="#p"/>
  <use x="106.304688" y="583.273438" xlink:href="#o"/>
  <use x="110.570313" y="583.273438" xlink:href="#d"/>
  <use x="113.4375" y="583.273438" xlink:href="#c"/>
  <use x="117.4375" y="583.273438" xlink:href="#n"/>
  <use x="119.429688" y="583.273438" xlink:href="#b"/>
  <use x="123.378906" y="583.273438" xlink:href="#m"/>
  <use x="126.828125" y="583.273438" xlink:href="#a"/>
 </g>
</svg>
